<svg xmlns="http://www.w3.org/2000/svg" width="58.969" height="58" enable-background="new 0 0 128 128" viewBox="0 0 128 128"><path fill="#1d75b9" d="M58.5,89.9h-13l4.9-4.8c5.1-4.8,7.4-7.8,7.4-13.3c0-6.8-3.9-10.2-11.7-10.2c-4.9,0-9.8,1.4-10,1.5l-0.9,0.3
		l0.5,6.5l1.2-0.2c0,0,4.4-0.9,7.7-0.9c4.2,0,4.9,1.2,4.9,3.7c0,2.9-2,5.2-6.3,9.5l-8.4,8.6v6.3h23.4V89.9z"/><polygon fill="#1d75b9" points="81.6 96.9 89.3 96.9 89.3 91.1 92.9 91.1 92.9 84 89.3 84 89.3 74.5 81.6 74.5 81.6 84 75.3 84 84.4 62.2 75.9 62.2 67 85.6 67 91.1 81.6 91.1"/><path fill="#2d3e50" d="M113.4,14.8h-7.7V11c0-1.6-1.1-2.9-2.6-3.2c-0.9-0.2-1.8,0.1-2.5,0.7c-0.7,0.6-1.1,1.4-1.1,2.4v3.9H79.9V11
		c0-1.6-1.1-2.9-2.6-3.2c-0.9-0.2-1.8,0.1-2.5,0.7c-0.7,0.6-1.1,1.4-1.1,2.4v3.9H54.2V11c0-1.6-1.1-2.9-2.6-3.2
		c-0.9-0.2-1.8,0.1-2.5,0.7c-0.7,0.6-1.1,1.4-1.1,2.4v3.9H28.6V11c0-1.6-1.1-2.9-2.6-3.2c-0.9-0.2-1.8,0.1-2.5,0.7
		c-0.7,0.6-1.1,1.4-1.1,2.4v3.9h-7.7c-7.1,0-12.9,5.8-12.9,12.9v79.6c0,7.1,5.8,12.9,12.9,12.9h98.7c7.1,0,12.9-5.8,12.9-12.9V27.7
		C126.2,20.6,120.5,14.8,113.4,14.8z M118.4,107.3c0,2.8-2.3,5-5,5H14.6c-2.8,0-5-2.3-5-5V46.2h108.8V107.3z M118.4,38.3H9.6V27.7
		c0-2.8,2.3-5,5-5h7.7v5.3c0,1.7,1.4,3.1,3.1,3.1c1.7,0,3.1-1.4,3.1-3.1v-5.3h19.5v5.3c0,1.7,1.4,3.1,3.1,3.1c1.7,0,3.1-1.4,3.1-3.1
		v-5.3h19.5v5.3c0,1.7,1.4,3.1,3.1,3.1s3.1-1.4,3.1-3.1v-5.3h19.5v5.3c0,1.7,1.4,3.1,3.1,3.1s3.1-1.4,3.1-3.1v-5.3h7.7
		c2.8,0,5,2.3,5,5V38.3z"/></svg>