<svg xmlns="http://www.w3.org/2000/svg" enable-background="new 0 0 36 36" viewBox="0 0 36 36"><g display="none"><path fill="#404852" d="M32,15.14h-2.31l3.67-3.67c1.85-1.85,1.85-4.87,0-6.72c-1.85-1.85-4.87-1.85-6.72,0L16.25,15.14H4
			c-1.52,0-2.75,1.23-2.75,2.75v6c0,2.62,2.13,4.75,4.75,4.75h0.25v1.25c0,1.52,1.23,2.75,2.75,2.75h18c1.52,0,2.75-1.23,2.75-2.75
			v-1.25H30c2.62,0,4.75-2.13,4.75-4.75v-6C34.75,16.37,33.52,15.14,32,15.14z M27.7,5.81c1.27-1.27,3.33-1.27,4.6,0
			c1.27,1.27,1.27,3.33,0,4.6l-4.73,4.73h-9.19L27.7,5.81z M28.25,29.89c0,0.69-0.56,1.25-1.25,1.25H9c-0.69,0-1.25-0.56-1.25-1.25
			v-1.25h20.5V29.89z M33.25,23.89c0,1.79-1.46,3.25-3.25,3.25h-1H7H6c-1.79,0-3.25-1.46-3.25-3.25v-6c0-0.69,0.56-1.25,1.25-1.25
			h12.56h11.31H32c0.69,0,1.25,0.56,1.25,1.25V23.89z"/><path fill="#404852" d="M20.2,19.89l-0.52,0.01c-1.83,0.03-3.47,1.15-4.15,2.86l-0.19,0.48c-0.06,0.15,2.56-1.49,2.65-1.37
			c0.08,0.12-2.38,2-2.21,2l0.52-0.01c1.83-0.03,3.47-1.15,4.15-2.86l0.19-0.48C20.75,20.21,20.52,19.88,20.2,19.89z"/></g><path fill="#e3e7e8" d="M30,27.89H6c-2.21,0-4-1.79-4-4v-6c0-1.1,0.9-2,2-2h28c1.1,0,2,0.9,2,2v6C34,26.1,32.21,27.89,30,27.89z"/><path fill="#f3f6f5" d="M33.5,24.89c-0.55,0-1-0.45-1-1v-6c0-0.28-0.22-0.5-0.5-0.5H17.77c-0.55,0-1-0.45-1-1s0.45-1,1-1H32
			c1.38,0,2.5,1.12,2.5,2.5v6C34.5,24.44,34.05,24.89,33.5,24.89z"/><path fill="#c9cfd7" d="M30,28.39H6c-2.48,0-4.5-2.02-4.5-4.5v-6c0-1.38,1.12-2.5,2.5-2.5c0.55,0,1,0.45,1,1s-0.45,1-1,1
			c-0.28,0-0.5,0.22-0.5,0.5v6c0,1.38,1.12,2.5,2.5,2.5h24c0.55,0,1,0.45,1,1S30.55,28.39,30,28.39z"/><path fill="#e3e7e8" d="M7,27.89h22v2c0,1.1-0.9,2-2,2H9c-1.1,0-2-0.9-2-2V27.89z"/><path fill="#c9cfd7" d="M9,32.39c-1.38,0-2.5-1.12-2.5-2.5v-1.5c0-0.55,0.45-1,1-1h21c0.55,0,1,0.45,1,1s-0.45,1-1,1h-20v0.5
			c0,0.28,0.22,0.5,0.5,0.5c0.55,0,1,0.45,1,1S9.55,32.39,9,32.39z"/><path fill="#e3e7e8" d="M27.88,15.89l4.95-4.95c1.56-1.56,1.56-4.09,0-5.66l0,0c-1.56-1.56-4.09-1.56-5.66,0L16.56,15.89H27.88z"/><path fill="#c9cfd7" d="M28.67,16.39h-10.9c-0.4,0-0.77-0.24-0.92-0.62c-0.15-0.37-0.07-0.8,0.22-1.09l3.4-3.4
			c0.39-0.39,1.02-0.39,1.41,0s0.39,1.02,0,1.41l-1.7,1.7h8.49c0.55,0,1,0.45,1,1S29.22,16.39,28.67,16.39z"/><path fill="#f3f6f5" d="M32.48,11.59c-0.26,0-0.51-0.1-0.71-0.29c-0.39-0.39-0.39-1.02,0-1.41c0.98-0.98,0.97-2.56,0-3.54
			c-0.94-0.94-2.59-0.94-3.54,0c-0.39,0.39-1.02,0.39-1.41,0s-0.39-1.02,0-1.41C27.67,4.08,28.8,3.61,30,3.61s2.33,0.47,3.18,1.32
			c1.75,1.75,1.75,4.61,0,6.36C32.99,11.49,32.73,11.59,32.48,11.59z"/><path fill="#404852" d="M30,28.64H6c-2.62,0-4.75-2.13-4.75-4.75v-6c0-1.52,1.23-2.75,2.75-2.75h28c1.52,0,2.75,1.23,2.75,2.75v6
			C34.75,26.51,32.62,28.64,30,28.64z M4,16.64c-0.69,0-1.25,0.56-1.25,1.25v6c0,1.79,1.46,3.25,3.25,3.25h24
			c1.79,0,3.25-1.46,3.25-3.25v-6c0-0.69-0.56-1.25-1.25-1.25H4z"/><path fill="#404852" d="M30,28.64H6c-2.62,0-4.75-2.13-4.75-4.75v-6c0-1.52,1.23-2.75,2.75-2.75h28c1.52,0,2.75,1.23,2.75,2.75v6
			C34.75,26.51,32.62,28.64,30,28.64z M4,16.64c-0.69,0-1.25,0.56-1.25,1.25v6c0,1.79,1.46,3.25,3.25,3.25h24
			c1.79,0,3.25-1.46,3.25-3.25v-6c0-0.69-0.56-1.25-1.25-1.25H4z"/><path fill="#404852" d="M27,32.64H9c-1.52,0-2.75-1.23-2.75-2.75v-2c0-0.41,0.34-0.75,0.75-0.75h22c0.41,0,0.75,0.34,0.75,0.75v2
			C29.75,31.41,28.52,32.64,27,32.64z M7.75,28.64v1.25c0,0.69,0.56,1.25,1.25,1.25h18c0.69,0,1.25-0.56,1.25-1.25v-1.25H7.75z"/><path fill="#404852" d="M27 32.64H9c-1.52 0-2.75-1.23-2.75-2.75v-2c0-.41.34-.75.75-.75h22c.41 0 .75.34.75.75v2C29.75 31.41 28.52 32.64 27 32.64zM7.75 28.64v1.25c0 .69.56 1.25 1.25 1.25h18c.69 0 1.25-.56 1.25-1.25v-1.25H7.75zM27.88 16.64H16.56c-.3 0-.58-.18-.69-.46s-.05-.6.16-.82L26.64 4.75c1.85-1.85 4.87-1.85 6.72 0 1.85 1.85 1.85 4.87 0 6.72l-4.95 4.95C28.27 16.56 28.08 16.64 27.88 16.64zM18.38 15.14h9.19l4.73-4.73c1.27-1.27 1.27-3.33 0-4.6-1.27-1.27-3.33-1.27-4.6 0L18.38 15.14z"/><path fill="#404852" d="M27.88,16.64H16.56c-0.3,0-0.58-0.18-0.69-0.46s-0.05-0.6,0.16-0.82L26.64,4.75c1.85-1.85,4.87-1.85,6.72,0
			c1.85,1.85,1.85,4.87,0,6.72l-4.95,4.95C28.27,16.56,28.08,16.64,27.88,16.64z M18.38,15.14h9.19l4.73-4.73
			c1.27-1.27,1.27-3.33,0-4.6c-1.27-1.27-3.33-1.27-4.6,0L18.38,15.14z"/><g display="none"><path fill="#e3e7e8" d="M30,27.89H6c-2.21,0-4-1.79-4-4v-6c0-1.1,0.9-2,2-2h28c1.1,0,2,0.9,2,2v6C34,26.1,32.21,27.89,30,27.89z"/><path fill="none" stroke="#f3f6f5" stroke-linecap="round" stroke-linejoin="round" stroke-miterlimit="10" stroke-width="2" d="M17.77,16.39H32c0.83,0,1.5,0.67,1.5,1.5v6"/><path fill="none" stroke="#c9cfd7" stroke-linecap="round" stroke-linejoin="round" stroke-miterlimit="10" stroke-width="2" d="M30,27.39H6c-1.93,0-3.5-1.57-3.5-3.5v-6c0-0.83,0.67-1.5,1.5-1.5"/><path fill="#e3e7e8" d="M7,27.89h22v2c0,1.1-0.9,2-2,2H9c-1.1,0-2-0.9-2-2V27.89z"/><path fill="none" stroke="#c9cfd7" stroke-linecap="round" stroke-linejoin="round" stroke-miterlimit="10" stroke-width="2" d="M9,31.39c-0.83,0-1.5-0.67-1.5-1.5v-1.5h21"/><path fill="#e3e7e8" d="M27.88,15.89l4.95-4.95c1.56-1.56,1.56-4.09,0-5.66l0,0c-1.56-1.56-4.09-1.56-5.66,0L16.56,15.89H27.88z"/><polyline fill="none" stroke="#c9cfd7" stroke-linecap="round" stroke-linejoin="round" stroke-miterlimit="10" stroke-width="2" points="28.67 15.39 17.77 15.39 21.17 11.99"/><path fill="none" stroke="#f3f6f5" stroke-linecap="round" stroke-linejoin="round" stroke-miterlimit="10" stroke-width="2" d="M27.53,5.64c0.66-0.66,1.54-1.02,2.47-1.02s1.81,0.36,2.47,1.02c1.36,1.36,1.36,3.58,0,4.95"/><path fill="none" stroke="#404852" stroke-linecap="round" stroke-linejoin="round" stroke-miterlimit="10" stroke-width="1.5" d="M30,27.89H6c-2.21,0-4-1.79-4-4v-6c0-1.1,0.9-2,2-2h28c1.1,0,2,0.9,2,2v6C34,26.1,32.21,27.89,30,27.89z"/><path fill="none" stroke="#404852" stroke-linecap="round" stroke-linejoin="round" stroke-miterlimit="10" stroke-width="1.5" d="M30 27.89H6c-2.21 0-4-1.79-4-4v-6c0-1.1.9-2 2-2h28c1.1 0 2 .9 2 2v6C34 26.1 32.21 27.89 30 27.89zM7 27.89h22v2c0 1.1-.9 2-2 2H9c-1.1 0-2-.9-2-2V27.89z"/><path fill="none" stroke="#404852" stroke-linecap="round" stroke-linejoin="round" stroke-miterlimit="10" stroke-width="1.5" d="M7 27.89h22v2c0 1.1-.9 2-2 2H9c-1.1 0-2-.9-2-2V27.89zM27.88 15.89l4.95-4.95c1.56-1.56 1.56-4.09 0-5.66l0 0c-1.56-1.56-4.09-1.56-5.66 0L16.56 15.89H27.88z"/><path fill="none" stroke="#404852" stroke-linecap="round" stroke-linejoin="round" stroke-miterlimit="10" stroke-width="1.5" d="M27.88,15.89l4.95-4.95c1.56-1.56,1.56-4.09,0-5.66l0,0c-1.56-1.56-4.09-1.56-5.66,0L16.56,15.89H27.88z"/></g><g display="none"><path fill="#e3e7e8" d="M30,27.89H6c-2.21,0-4-1.79-4-4v-6c0-1.1,0.9-2,2-2h28c1.1,0,2,0.9,2,2v6C34,26.1,32.21,27.89,30,27.89z"/><path fill="none" stroke="#f3f6f5" stroke-linecap="round" stroke-linejoin="round" stroke-miterlimit="10" stroke-width="2" d="M17.77,16.39H32c0.83,0,1.5,0.67,1.5,1.5v6"/><path fill="none" stroke="#c9cfd7" stroke-linecap="round" stroke-linejoin="round" stroke-miterlimit="10" stroke-width="2" d="M30,27.39H6c-1.93,0-3.5-1.57-3.5-3.5v-6c0-0.83,0.67-1.5,1.5-1.5"/><path fill="#e3e7e8" d="M7,27.89h22v2c0,1.1-0.9,2-2,2H9c-1.1,0-2-0.9-2-2V27.89z"/><path fill="none" stroke="#c9cfd7" stroke-linecap="round" stroke-linejoin="round" stroke-miterlimit="10" stroke-width="2" d="M9,31.39c-0.83,0-1.5-0.67-1.5-1.5v-1.5h21"/><path fill="#e3e7e8" d="M27.88,15.89l4.95-4.95c1.56-1.56,1.56-4.09,0-5.66l0,0c-1.56-1.56-4.09-1.56-5.66,0L16.56,15.89H27.88z"/><polyline fill="none" stroke="#c9cfd7" stroke-linecap="round" stroke-linejoin="round" stroke-miterlimit="10" stroke-width="2" points="28.67 15.39 17.77 15.39 21.17 11.99"/><path fill="none" stroke="#f3f6f5" stroke-linecap="round" stroke-linejoin="round" stroke-miterlimit="10" stroke-width="2" d="M27.53,5.64c0.66-0.66,1.54-1.02,2.47-1.02s1.81,0.36,2.47,1.02c1.36,1.36,1.36,3.58,0,4.95"/><path fill="none" stroke="#404852" stroke-linecap="round" stroke-linejoin="round" stroke-miterlimit="10" stroke-width="1.5" d="M30,27.89H6c-2.21,0-4-1.79-4-4v-6c0-1.1,0.9-2,2-2h28c1.1,0,2,0.9,2,2v6C34,26.1,32.21,27.89,30,27.89z"/><path fill="none" stroke="#404852" stroke-linecap="round" stroke-linejoin="round" stroke-miterlimit="10" stroke-width="1.5" d="M30 27.89H6c-2.21 0-4-1.79-4-4v-6c0-1.1.9-2 2-2h28c1.1 0 2 .9 2 2v6C34 26.1 32.21 27.89 30 27.89zM7 27.89h22v2c0 1.1-.9 2-2 2H9c-1.1 0-2-.9-2-2V27.89z"/><path fill="none" stroke="#404852" stroke-linecap="round" stroke-linejoin="round" stroke-miterlimit="10" stroke-width="1.5" d="M7 27.89h22v2c0 1.1-.9 2-2 2H9c-1.1 0-2-.9-2-2V27.89zM27.88 15.89l4.95-4.95c1.56-1.56 1.56-4.09 0-5.66l0 0c-1.56-1.56-4.09-1.56-5.66 0L16.56 15.89H27.88z"/><path fill="none" stroke="#404852" stroke-linecap="round" stroke-linejoin="round" stroke-miterlimit="10" stroke-width="1.5" d="M27.88,15.89l4.95-4.95c1.56-1.56,1.56-4.09,0-5.66l0,0c-1.56-1.56-4.09-1.56-5.66,0L16.56,15.89H27.88z"/></g></svg>