<svg xmlns="http://www.w3.org/2000/svg" fill-rule="evenodd" stroke-linejoin="round" stroke-miterlimit="2" clip-rule="evenodd" viewBox="0 0 32 32"><g transform="translate(-156 -156)"><path d="M67,156.143L67,169C67,169.315 67.448,169.571 68,169.571C68.552,169.571 69,169.315 69,169L69,156.143C69,155.827 68.552,155.571 68,155.571C67.448,155.571 67,155.827 67,156.143Z" transform="matrix(1 0 0 1.75 91 -110.75)"/><path d="M159,182L184,182C184,182 184,185 184,185C184,185.552 184.448,186 185,186C185.552,186 186,185.552 186,185L186,181C186,180.448 185.552,180 185,180L159,180C158.448,180 158,180.448 158,181C158,181.552 158.448,182 159,182Z"/><path d="M169.133,182L169.133,177C169.133,177 182.733,177 182.733,177C183.359,177 183.867,177.448 183.867,178C183.867,178 183.867,182 183.867,182C183.867,182.552 184.374,183 185,183C185.626,183 186.133,182.552 186.133,182L186.133,178C186.133,176.343 184.611,175 182.733,175C178.105,175 168,175 168,175C167.374,175 166.867,175.448 166.867,176L166.867,182C166.867,182.552 167.374,183 168,183C168.626,183 169.133,182.552 169.133,182Z" transform="matrix(.88235 0 0 1 21.765 -1)"/><path d="M164,176L164,174.848C164,173.827 164.827,173 165.848,173C165.848,173 165.85,173 165.85,173C166.321,173 166.773,173.187 167.106,173.52C167.106,173.52 169.293,175.707 169.293,175.707C169.683,176.097 170.317,176.097 170.707,175.707C171.097,175.317 171.097,174.683 170.707,174.293L168.52,172.106C167.812,171.398 166.852,171 165.85,171L165.848,171C163.723,171 162,172.723 162,174.848L162,176C162,176.552 162.448,177 163,177C163.552,177 164,176.552 164,176Z"/><path d="M70,12C68.344,12 67,13.344 67,15C67,16.656 68.344,18 70,18C71.656,18 73,16.656 73,15C73,13.344 71.656,12 70,12ZM70,14C70.552,14 71,14.448 71,15C71,15.552 70.552,16 70,16C69.448,16 69,15.552 69,15C69,14.448 69.448,14 70,14Z" transform="translate(95 151)"/><path d="M119,107L119,111C119,111.552 119.448,112 120,112C120.552,112 121,111.552 121,111L121,107C121,106.448 120.552,106 120,106C119.448,106 119,106.448 119,107Z" transform="translate(50 52)"/><path d="M119,107L119,111C119,111.552 119.448,112 120,112C120.552,112 121,111.552 121,111L121,107C121,106.448 120.552,106 120,106C119.448,106 119,106.448 119,107Z" transform="rotate(90 119 160)"/></g></svg>